# xmcd
#
# Track frame offsets: 
#        150
#        12140
#        24050
#        43929
#        59109
#        72068
#        89057
#        106597
#        127828
#        144518
#        163630
#        190210
#
# Disc length: 2553 seconds
#
# Revision: 2
# Processed by: cddbd v1.5.2PL0 Copyright (c) Steve Scherf et al.
# Submitted via: ExactAudioCopy v1.0b3
#
DISCID=9a09f70c
DTITLE=Tommy Alverson Band - Alive and Pickin'
DYEAR=2001
DGENRE=Country
TTITLE0=I Wouldn't Trade Texas for the World
TTITLE1=Not Tonight, I've Got a Heartache
TTITLE2=Troubles
TTITLE3=Cowboy Mardi Gras
TTITLE4=Follow Your Heart
TTITLE5=How Good a Bad Woman Feels
TTITLE6=Make You Mine
TTITLE7=I Don't Think I'll Go to Mexico
TTITLE8=Buy Me a Bar
TTITLE9=Texas Woman
TTITLE10=Una Mas Cerveza
TTITLE11=Extra
EXTD=
EXTT0=
EXTT1=
EXTT2=
EXTT3=
EXTT4=
EXTT5=
EXTT6=
EXTT7=
EXTT8=
EXTT9=
EXTT10=
EXTT11=
PLAYORDER=
